<svg xmlns="http://www.w3.org/2000/svg" viewBox="0 0 200 200">
  <circle cx="100" cy="100" r="92" fill="#efe9dc"/>
  <ellipse cx="100" cy="140" rx="62" ry="18" fill="#e3dccd"/>
  <g fill="#241f1a">
    <ellipse cx="72" cy="128" rx="16" ry="11" transform="rotate(-20 72 128)"/>
    <ellipse cx="100" cy="118" rx="16" ry="11" transform="rotate(10 100 118)"/>
    <ellipse cx="128" cy="128" rx="16" ry="11" transform="rotate(25 128 128)"/>
    <ellipse cx="86" cy="105" rx="15" ry="10" transform="rotate(-15 86 105)"/>
    <ellipse cx="114" cy="102" rx="15" ry="10" transform="rotate(18 114 102)"/>
    <ellipse cx="100" cy="88" rx="14" ry="9.5" transform="rotate(2 100 88)"/>
    <ellipse cx="76" cy="90" rx="12" ry="8.5" transform="rotate(-25 76 90)"/>
  </g>
  <g fill="#5c554a" opacity="0.5">
    <ellipse cx="68" cy="123" rx="5" ry="3"/>
    <ellipse cx="96" cy="113" rx="5" ry="3"/>
    <ellipse cx="124" cy="123" rx="5" ry="3"/>
    <ellipse cx="82" cy="100" rx="4.5" ry="3"/>
    <ellipse cx="110" cy="97" rx="4.5" ry="3"/>
  </g>
</svg>
