<svg xmlns="http://www.w3.org/2000/svg" viewBox="0 0 200 200">
  <circle cx="100" cy="100" r="92" fill="#f8f0dc"/>
  <path d="M 60 150 Q 30 110 55 55 Q 70 40 95 45 L 95 155 Q 78 160 60 150 Z" fill="#6b9c53"/>
  <path d="M 140 150 Q 170 110 145 55 Q 130 40 105 45 L 105 155 Q 122 160 140 150 Z" fill="#4a7c3f"/>
  <rect x="80" y="42" width="40" height="120" rx="20" fill="#e0b04c"/>
  <g fill="#c99a3a">
    <circle cx="88" cy="58" r="4.2"/><circle cx="100" cy="58" r="4.2"/><circle cx="112" cy="58" r="4.2"/>
    <circle cx="82" cy="70" r="4.2"/><circle cx="94" cy="70" r="4.2"/><circle cx="106" cy="70" r="4.2"/><circle cx="118" cy="70" r="4.2"/>
    <circle cx="88" cy="82" r="4.2"/><circle cx="100" cy="82" r="4.2"/><circle cx="112" cy="82" r="4.2"/>
    <circle cx="82" cy="94" r="4.2"/><circle cx="94" cy="94" r="4.2"/><circle cx="106" cy="94" r="4.2"/><circle cx="118" cy="94" r="4.2"/>
    <circle cx="88" cy="106" r="4.2"/><circle cx="100" cy="106" r="4.2"/><circle cx="112" cy="106" r="4.2"/>
    <circle cx="82" cy="118" r="4.2"/><circle cx="94" cy="118" r="4.2"/><circle cx="106" cy="118" r="4.2"/><circle cx="118" cy="118" r="4.2"/>
    <circle cx="88" cy="130" r="4.2"/><circle cx="100" cy="130" r="4.2"/><circle cx="112" cy="130" r="4.2"/>
    <circle cx="82" cy="142" r="4.2"/><circle cx="94" cy="142" r="4.2"/><circle cx="106" cy="142" r="4.2"/><circle cx="118" cy="142" r="4.2"/>
  </g>
</svg>
