<svg xmlns="http://www.w3.org/2000/svg" viewBox="0 0 200 200">
  <circle cx="100" cy="100" r="92" fill="#f0ece2"/>
  <g fill="#6b9c53">
    <path d="M 100 68 C 80 55 68 35 72 18 C 90 25 100 42 100 68 Z"/>
    <path d="M 100 68 C 120 55 132 35 128 18 C 110 25 100 42 100 68 Z"/>
    <path d="M 100 66 C 100 45 100 28 100 12 C 108 26 108 48 100 66 Z" fill="#4a7c3f"/>
  </g>
  <path d="M 68 72 Q 60 110 78 148 Q 100 168 122 148 Q 140 110 132 72 Q 100 58 68 72 Z"
        fill="#f7f4ea" stroke="#d8cfba" stroke-width="2"/>
  <path d="M 78 90 Q 100 98 122 90" stroke="#d8cfba" stroke-width="1.5" fill="none" opacity="0.8"/>
  <path d="M 75 108 Q 100 118 125 108" stroke="#d8cfba" stroke-width="1.5" fill="none" opacity="0.8"/>
  <path d="M 78 126 Q 100 134 122 126" stroke="#d8cfba" stroke-width="1.5" fill="none" opacity="0.8"/>
</svg>
