<svg xmlns="http://www.w3.org/2000/svg" viewBox="0 0 200 200">
  <circle cx="100" cy="100" r="92" fill="#f7e9e4"/>
  <g>
    <ellipse cx="100" cy="118" rx="56" ry="50" fill="#c1442d"/>
    <path d="M 46 108 Q 100 90 154 108 Q 154 150 100 168 Q 46 150 46 108 Z" fill="#c1442d"/>
    <ellipse cx="78" cy="98" rx="16" ry="12" fill="#da6a4f" opacity="0.55"/>
    <path d="M 60 118 Q 100 130 140 118" stroke="#9c3320" stroke-width="2" fill="none" opacity="0.5"/>
    <path d="M 70 145 Q 100 156 130 145" stroke="#9c3320" stroke-width="2" fill="none" opacity="0.4"/>
  </g>
  <g fill="#4a7c3f">
    <ellipse cx="100" cy="62" rx="7" ry="16" transform="rotate(0 100 62)"/>
    <ellipse cx="100" cy="62" rx="7" ry="16" transform="rotate(72 100 62)"/>
    <ellipse cx="100" cy="62" rx="7" ry="16" transform="rotate(144 100 62)"/>
    <ellipse cx="100" cy="62" rx="7" ry="16" transform="rotate(216 100 62)"/>
    <ellipse cx="100" cy="62" rx="7" ry="16" transform="rotate(288 100 62)"/>
  </g>
  <rect x="97" y="48" width="6" height="14" rx="2" fill="#3d6633"/>
</svg>
